<?xml version="1.0" encoding="UTF-8" standalone="no"?>
<svg width="41px" height="40px" viewBox="0 0 41 40" version="1.1" xmlns="http://www.w3.org/2000/svg" xmlns:xlink="http://www.w3.org/1999/xlink" xmlns:sketch="http://www.bohemiancoding.com/sketch/ns">
    <!-- Generator: Sketch 3.3.3 (12081) - http://www.bohemiancoding.com/sketch -->
    <title>Amber Exclamation</title>
    <desc>Created with Sketch.</desc>
    <defs></defs>
    <g id="Warranty-Checker" stroke="none" stroke-width="1" fill="none" fill-rule="evenodd" sketch:type="MSPage">
        <g id="12-lg-status" sketch:type="MSArtboardGroup" transform="translate(-161.000000, -681.000000)">
            <g id="Group-Copy" sketch:type="MSLayerGroup" transform="translate(161.000000, 561.000000)">
                <g id="Amber-Exclamation" transform="translate(0.875000, 120.000000)" sketch:type="MSShapeGroup">
                    <path d="M19.9578109,0.0210945274 C8.96676617,0.0210945274 0.0573134328,8.93054726 0.0573134328,19.9223881 C0.0573134328,30.9122388 8.96676617,39.8230846 19.9578109,39.8230846 C30.9488557,39.8230846 39.8583085,30.9122388 39.8583085,19.9223881 C39.8583085,8.93054726 30.9488557,0.0210945274 19.9578109,0.0210945274" id="Fill-1" fill="#E9B729"></path>
                    <path d="M19.161791,9.55223881 L20.7538308,9.55223881 L20.7538308,25.0746269 L19.161791,25.0746269 L19.161791,9.55223881 Z" id="Fill-2" fill="#FFFFFF"></path>
                    <path d="M18.8053731,30.0089552 C18.5812935,29.1448756 19.2977114,28.3781095 20.1490547,28.5094527 C20.6511443,28.5870647 21.0606965,28.9978109 21.1375124,29.5000995 C21.2680597,30.3552239 20.4925373,31.0712438 19.6272637,30.838209 C19.2294527,30.7311443 18.9086567,30.4077612 18.8053731,30.0089552" id="Fill-3" fill="#FFFFFF"></path>
                </g>
            </g>
        </g>
    </g>
</svg>